# xmcd CD database file
#
# Track frame offsets:
#	150
#	21501
#	43857
#	63439
#	85705
#	106552
#	129249
#	153480
#	165031
#	187939
#	211578
#	242756
#	263435
#	285716
#
# Disc length: 4155 seconds
#
# Revision: 0
# Processed by: cddbd v1.5.2PL0 Copyright (c) Steve Scherf et al.
# Submitted via: CDex 1.77
#
DISCID=a610390e
DTITLE=Walter Trout and the free radicals - livin' every day
DYEAR=1999
DGENRE=Blues
TTITLE0=livin' every day
TTITLE1=let me know
TTITLE2=playing with a losin' hand
TTITLE3=sweet butterfly (Sophie's song)
TTITLE4=I thought I heard the devil
TTITLE5=Through the eyes of love
TTITLE6=nothin' but the blues
TTITLE7=city man
TTITLE8=fool for love
TTITLE9=say what you mean
TTITLE10=apparitions
TTITLE11=junkyards in your eyes
TTITLE12=the love that we once knew
TTITLE13=prisoner of a dream
EXTD=YEAR: 1999
EXTT0=
EXTT1=
EXTT2=
EXTT3=
EXTT4=
EXTT5=
EXTT6=
EXTT7=
EXTT8=
EXTT9=
EXTT10=
EXTT11=
EXTT12=
EXTT13=
PLAYORDER=
